# xmcd
#
# Track frame offsets:
#	150
#	12150
#	23985
#	34460
#	46600
#	58280
#	70645
#	82215
#	93305
#	104270
#	117080
#	131755
#	144020
#	155805
#	170140
#	181000
#	192455
#	204020
#
# Disc length: 2909
#
# Revision: 2
# Processed by: cddbd v1.5.1PL0 Copyright (c) Steve Scherf et al.
# Submitted via: EasyCDDAExtractor 6.0.0.1
# Normalized: r1:DSETVAR1
#
DISCID=f40b5b12
DTITLE=Various Artist - Hot Country CD3-6
DYEAR=2004
DGENRE=Country
TTITLE0=Skeeter Davis - The End Of The World
TTITLE1=Don Gibson - I Can't Stop Loving You
TTITLE2=Faron Young - Hello Walls
TTITLE3=Jack Greene - There Goes My Everthing
TTITLE4=Freddy Fender - Before The Next Teartrop Falls
TTITLE5=Jack Scott - Burning Bridges
TTITLE6=Kitty Wells - Heartbreak Usa
TTITLE7=JohnnyRussell - Blue Eyes Crying In The Rain
TTITLE8=Justin Tubb - Take A Letter Miss Gray
TTITLE9=Roy Drusky - Three Hearts In A Tangle
TTITLE10=Johnny darrell - With Pen In Hand
TTITLE11=Stonewall jackson - A Wound Time Can't Erase
TTITLE12=bill Phillips - Put It Off Until Tomorrow
TTITLE13=Narvel Felts - Funny How Time Slips Away
TTITLE14=carl belew - Am I That Easy  To Forget
TTITLE15=ray price - Crazy Arms
TTITLE16=charlie louvin - I Don't Love Yoou Any More
TTITLE17=billie jo spears - Mr Walker It's All Over
EXTD=
EXTT0=
EXTT1=
EXTT2=
EXTT3=
EXTT4=
EXTT5=
EXTT6=
EXTT7=
EXTT8=
EXTT9=
EXTT10=
EXTT11=
EXTT12=
EXTT13=
EXTT14=
EXTT15=
EXTT16=
EXTT17=
PLAYORDER=
